PathFileType	4	(X/Y/Z)	Patient5_TMGait_0pt45_1_left_10.trc.trc
DataRate	CameraRate	NumFrames	NumMarkers	Units	OrigDataRate	OrigDataStartFrame	OrigNumFrames
55.776892430279	55.776892430279	4	32	mm	55.776892430279	53	       141
Frame#	Time	R.ASIS			L.ASIS			Chest			R.Shoulder			Neck			L.Shoulder			L.Elbow			L.Wrist			R.Elbow			R.Wrist			L.Thigh.Superior			L.Thigh.Lateral			L.Thigh.Inferior			L.Patella			L.Shank.Superior			L.Shank.Lateral			L.Shank.Inferior			L.Heel			L.Midfoot.Lateral			L.Midfoot.Superior			L.Toe			R.Thigh.Superior			R.Thigh.Lateral			R.Thigh.Inferior			R.Patella			R.Shank.Superior			R.Shank.Lateral			R.Shank.Inferior			R.Heel			R.Midfoot.Lateral			R.Midfoot.Superior			R.Toe			
		X1	Y1	Z1	X2	Y2	Z2	X3	Y3	Z3	X4	Y4	Z4	X5	Y5	Z5	X6	Y6	Z6	X7	Y7	Z7	X8	Y8	Z8	X9	Y9	Z9	X10	Y10	Z10	X11	Y11	Z11	X12	Y12	Z12	X13	Y13	Z13	X14	Y14	Z14	X15	Y15	Z15	X16	Y16	Z16	X17	Y17	Z17	X18	Y18	Z18	X19	Y19	Z19	X20	Y20	Z20	X21	Y21	Z21	X22	Y22	Z22	X23	Y23	Z23	X24	Y24	Z24	X25	Y25	Z25	X26	Y26	Z26	X27	Y27	Z27	X28	Y28	Z28	X29	Y29	Z29	X30	Y30	Z30	X31	Y31	Z31	X32	Y32	Z32	

53	16.082285714286	1044.634512095962	1014.344724303100	553.896244793193	1084.047390134945	963.452446207190	317.339635859477	1149.965394681193	1450.651385950212	424.542471272022	1013.842151844406	1525.827488969323	557.745034556572	1039.484663793725	1575.613315685184	371.576990537679	1144.690665814350	1508.968321824068	218.796142681982	1146.416066073062	1182.152492464888	94.417623929779	1297.356966058090	941.683818737784	150.274973122659	877.179202880066	1218.246642854976	682.217255980781	1090.502660314770	1020.736568658922	673.384164451117	1098.664382494035	751.147904678892	316.394043094273	1027.508390641559	680.479332531137	275.062898839262	1098.432804482291	624.363130099940	342.569894673108	1098.832479651992	507.509854423824	351.779847186452	1050.170345980388	404.381813748317	373.467483306026	985.047136108992	334.401075316895	299.410019125694	1019.062335823434	282.953126265413	388.085160928841	885.681972356820	49.753142374836	398.156822039294	976.778622720572	27.128181212801	340.527707605685	1072.834473956790	89.250499121143	388.051019138920	1179.173011079772	45.103662923052	398.558663335765	1068.372580949307	794.062296054913	611.724969568258	981.732171649237	721.478490978865	664.397713868990	1074.774727444995	663.308105123086	615.059842129412	1076.157349069234	568.019099773469	664.645425760549	1033.404908294233	464.230867756157	632.474443683971	936.917341452056	411.899093302174	698.203461669656	1003.747923296051	327.922939882405	642.738036101949	874.978727646320	111.018383496504	603.657829510723	929.484911862216	74.937077992227	694.226447691664	1041.296140845986	131.668051157200	705.050088435074	1137.275369828922	80.575662737801	731.114546013761	
54	16.100214285714	1042.472194311565	1015.192053634063	553.279851010662	1080.996893415911	963.240198198455	316.785164493581	1147.095171035059	1450.447173024530	422.627586687002	1011.893934639019	1526.142594023676	556.227638331901	1036.423865981671	1575.381490875016	369.762688056697	1141.109496941154	1508.091408220713	216.813556489504	1145.930690606507	1180.562098840971	94.555918786994	1299.298461250047	942.022062974598	152.066738147419	875.686079101189	1219.001786188287	682.190790125609	1087.614825444875	1020.108591343361	670.152401297155	1094.701133027995	750.364647567195	316.870119430727	1022.770005916488	679.813459635652	275.858996706339	1093.178214091416	623.422644394678	343.176497111654	1092.646476555023	506.947471596717	352.749960525989	1043.656025921721	403.966218006732	374.363175594254	978.799673982392	334.147759464707	299.846280942761	1012.019306021858	282.744208311014	388.998430431877	877.566024449018	49.750894082915	398.298453751419	968.654422340261	27.245613013663	340.652098611576	1064.713990637035	89.123244002220	388.295304565088	1171.108912902121	44.924610175136	398.569864153995	1065.874507806939	794.455172216940	610.097537258564	980.991903595609	721.790762985861	664.156855058772	1074.050194992646	664.541558918181	613.454510496729	1077.985123889395	570.359387794586	663.636700794087	1039.533826635520	466.235122389711	632.672911537255	945.742880137473	410.470054512966	699.480650572184	1016.215963059096	328.882549978795	644.730503232727	897.022408203422	105.504944431709	609.056543182623	954.003331632138	72.453882450732	699.266572354624	1063.164576691191	134.682073374385	708.733946875735	1161.812732884120	88.340388807361	734.166857081912	
55	16.118142857143	1040.136851379020	1016.035215107165	552.670098205484	1077.787225347851	963.016887586440	316.252303983224	1143.915757813303	1450.103856582515	421.094101425377	1009.594981502546	1526.350933965498	555.011062171027	1033.095185815700	1575.050495752264	368.257576498550	1137.348062712838	1507.111094232125	215.218728064813	1144.831868899331	1178.928537862630	94.968670687797	1300.433354160956	942.205556733730	153.962785208321	874.397211955749	1219.458286395193	682.545194873939	1085.317134447237	1019.677916715896	667.198777874947	1090.646542827968	749.518805001497	317.688527108317	1018.148684294329	679.036673772730	276.753974450332	1087.836080144210	622.457584983585	344.172045597936	1086.431499122065	506.343794613917	354.085937183740	1037.159649334788	403.535295671096	375.590994496067	972.707875883411	333.795809381818	300.395361527166	1004.955348720001	282.471255484747	390.142686402257	869.449535508882	49.843806441434	398.371677011012	960.517986563313	27.374594484892	340.798250879743	1056.562216691761	88.985797662179	388.591288942751	1163.041139190562	44.746432697547	398.579620970875	1064.427232210769	795.416567341318	608.991046557386	981.794626449725	722.187766890672	664.161909706524	1075.239126583805	666.256445763468	612.252842859941	1081.734045860889	572.918944791747	662.832199096377	1046.732006665142	468.430123846739	632.819437320478	955.409562750226	409.921384776177	700.765861645898	1028.477799931846	330.455608038743	646.151127146258	916.919111579797	102.477297659295	613.494918068214	976.110332670277	71.711648790473	703.109690553760	1083.002025455592	138.214881920792	711.030603677892	1183.711061666429	95.660437674621	735.377632734315	
56	16.136071428571	1037.676361152823	1016.847388190022	552.027056484269	1074.444025161480	962.800562447237	315.717656573054	1140.412446270651	1449.653879788186	419.931701197946	1006.861883261186	1526.453527345962	554.064262228149	1029.490156074281	1574.643434207113	367.060499659224	1133.440443750155	1506.090288074377	214.023011668379	1143.125023692157	1177.306601342185	95.634666692386	1300.729058848251	942.247683227930	155.927198029337	873.177349476603	1219.613369944075	683.167561036187	1083.567992940217	1019.524498239701	664.626268444316	1086.484295134976	748.634865307967	318.812260654553	1013.652070254525	678.218382590760	277.638988489820	1082.396932015505	621.483340165057	345.462507445941	1080.183368254148	505.687590940017	355.658622498729	1030.657613612112	403.059993095057	377.013879407503	966.683050752267	333.357092775802	301.027187155489	997.856286357460	282.123264386261	391.425488625187	861.328263243849	49.989879903121	398.410309144479	952.369311312938	27.508628387865	340.957624789277	1048.375256940029	88.836204106932	388.928451283827	1154.963465630593	44.585838241418	398.583639972891	1064.258694958123	797.005155825498	608.379019266118	984.170008214920	722.754708573950	664.370003229188	1078.321090977315	668.486919471540	611.482076791052	1087.307882429345	575.734341332982	662.293023935577	1054.850208639867	470.753947454667	632.954823128281	965.650253444383	410.174056697492	701.994223758556	1040.312878552844	332.442471512917	647.002712478651	934.298772479381	101.522447210542	616.718123995892	995.359234843273	72.327639567689	705.646044516821	1100.482087904626	141.889312622476	712.036601388451	1202.690527507772	102.076609056018	735.080289681708	
